<svg width="1920" height="1080" viewBox="0 0 1920 1080" fill="none" xmlns="http://www.w3.org/2000/svg">
<rect width="1920" height="1080" fill="white"/>
<path d="M686.016 585V565.288L731.712 511.016V509.224H687.296V495.4H747.584V515.112L701.888 569.384V571.176H748.096V585H686.016ZM805.501 586.792C794.408 586.792 785.533 583.72 778.877 577.576C772.306 571.347 769.021 562.429 769.021 550.824V529.576C769.021 517.971 772.306 509.096 778.877 502.952C785.533 496.723 794.408 493.608 805.501 493.608C816.68 493.608 825.554 496.723 832.125 502.952C838.696 509.096 841.981 517.971 841.981 529.576V550.824C841.981 562.429 838.696 571.347 832.125 577.576C825.554 583.72 816.68 586.792 805.501 586.792ZM805.501 572.968C812.157 572.968 817.32 571.048 820.989 567.208C824.744 563.283 826.621 557.992 826.621 551.336V529.064C826.621 522.408 824.744 517.16 820.989 513.32C817.32 509.395 812.157 507.432 805.501 507.432C798.93 507.432 793.768 509.395 790.013 513.32C786.344 517.16 784.509 522.408 784.509 529.064V551.336C784.509 557.992 786.344 563.283 790.013 567.208C793.768 571.048 798.93 572.968 805.501 572.968ZM901.991 586.792C890.898 586.792 882.023 583.72 875.367 577.576C868.796 571.347 865.511 562.429 865.511 550.824V529.576C865.511 517.971 868.796 509.096 875.367 502.952C882.023 496.723 890.898 493.608 901.991 493.608C913.17 493.608 922.044 496.723 928.615 502.952C935.186 509.096 938.471 517.971 938.471 529.576V550.824C938.471 562.429 935.186 571.347 928.615 577.576C922.044 583.72 913.17 586.792 901.991 586.792ZM901.991 572.968C908.647 572.968 913.81 571.048 917.479 567.208C921.234 563.283 923.111 557.992 923.111 551.336V529.064C923.111 522.408 921.234 517.16 917.479 513.32C913.81 509.395 908.647 507.432 901.991 507.432C895.42 507.432 890.258 509.395 886.503 513.32C882.834 517.16 880.999 522.408 880.999 529.064V551.336C880.999 557.992 882.834 563.283 886.503 567.208C890.258 571.048 895.42 572.968 901.991 572.968ZM964.177 585V495.4H992.977L1010.39 574.632H1012.56L1030.1 495.4H1058.77V585H1043.92V506.536H1041.75L1024.34 585H998.737L981.329 506.536H979.153V585H964.177Z" fill="#0B5CFF"/>
<path d="M1086.79 585V495.4H1143.88V509.352H1102.28V532.904H1140.3V546.856H1102.28V571.048H1144.52V585H1086.79ZM1168.16 585V495.4H1206.43C1212.06 495.4 1216.97 496.381 1221.15 498.344C1225.33 500.307 1228.57 503.08 1230.88 506.664C1233.27 510.163 1234.46 514.387 1234.46 519.336V520.744C1234.46 526.291 1233.14 530.728 1230.49 534.056C1227.85 537.384 1224.65 539.816 1220.89 541.352V543.4C1224.22 543.571 1226.82 544.723 1228.7 546.856C1230.66 548.989 1231.65 551.848 1231.65 555.432V585H1216.29V557.608C1216.29 555.475 1215.69 553.768 1214.49 552.488C1213.38 551.123 1211.55 550.44 1208.99 550.44H1183.65V585H1168.16ZM1183.65 536.488H1204.89C1209.33 536.488 1212.79 535.336 1215.26 533.032C1217.82 530.643 1219.1 527.485 1219.1 523.56V522.408C1219.1 518.397 1217.86 515.24 1215.39 512.936C1212.91 510.547 1209.42 509.352 1204.89 509.352H1183.65V536.488Z" fill="#334155"/>
</svg>
